#N canvas 1845 393 536 658 12;
#X declare -lib mrpeach;
#X obj 395 374 mtof;
#X floatatom 394 325 0 0 0 0 - - -;
#X text 432 324 pitch;
#X msg 32 -11 status;
#X obj 205 7 import mrpeach;
#X obj 38 42 unpackOSC;
#X obj 38 15 udpreceive 12500;
#X msg 92 -11 port 12500;
#N canvas 1514 191 832 781 scales 0;
#X obj -226 85 inlet;
#X obj -21 289 inlet;
#X obj -159 465 outlet;
#N canvas 1453 52 450 300 (subpatch) 0;
#X array blues 128 float 3;
#A 0 41 42 43 46 48 51 53 54 55 58 60 63 65 66 67 70 72 75 77 78 79
82 84 87 89 90 91 94 96 99 101 102 41 42 43 46 48 51 53 54 55 58 60
63 65 66 67 70 72 75 77 78 79 82 84 87 89 90 91 94 96 99 101 102 41
42 43 46 48 51 53 54 55 58 60 63 65 66 67 70 72 75 77 78 79 82 84 87
89 90 91 94 96 99 101 102 41 42 43 46 48 51 53 54 55 58 60 63 65 66
67 70 72 75 77 78 79 82 84 87 89 90 91 94 96 99 101 102;
#X coords 0 127 128 0 200 140 1 0 0;
#X restore -224 620 graph;
#N canvas 0 0 450 300 (subpatch) 0;
#X array mixolydian 128 float 3;
#A 0 45 46 48 50 52 53 55 57 58 60 62 64 65 67 69 70 72 74 76 77 79
81 82 84 86 88 89 91 93 94 96 98 45 46 48 50 52 53 55 57 58 60 62 64
65 67 69 70 72 74 76 77 79 81 82 84 86 88 89 91 93 94 96 98 45 46 48
50 52 53 55 57 58 60 62 64 65 67 69 70 72 74 76 77 79 81 82 84 86 88
89 91 93 94 96 98 45 46 48 50 52 53 55 57 58 60 62 64 65 67 69 70 72
74 76 77 79 81 82 84 86 88 89 91 93 94 96 98;
#X coords 0 127 128 0 200 140 1 0 0;
#X restore -21 620 graph;
#N canvas 0 0 450 300 (subpatch) 0;
#X array major 128 float 3;
#A 0 43 45 48 50 51 52 54 55 57 60 62 63 64 66 67 69 72 74 75 76 78
79 81 84 86 87 88 90 91 93 96 98 43 45 48 50 51 52 54 55 57 60 62 63
64 66 67 69 72 74 75 76 78 79 81 84 86 87 88 90 91 93 96 98 43 45 48
50 51 52 54 55 57 60 62 63 64 66 67 69 72 74 75 76 78 79 81 84 86 87
88 90 91 93 96 98 43 45 48 50 51 52 54 55 57 60 62 63 64 66 67 69 72
74 75 76 78 79 81 84 86 87 88 90 91 93 96 98;
#X coords 0 127 128 0 200 140 1 0 0;
#X restore 182 621 graph;
#N canvas 1448 52 450 300 (subpatch) 0;
#X array minor 128 float 3;
#A 0 51 53 55 56 57 58 59 60 62 63 65 67 68 69 70 71 72 74 75 77 79
80 81 82 83 84 86 87 89 91 92 93 51 53 55 56 57 58 59 60 62 63 65 67
68 69 70 71 72 74 75 77 79 80 81 82 83 84 86 87 89 91 92 93 51 53 55
56 57 58 59 60 62 63 65 67 68 69 70 71 72 74 75 77 79 80 81 82 83 84
86 87 89 91 92 93 51 53 55 56 57 58 59 60 62 63 65 67 68 69 70 71 72
74 75 77 79 80 81 82 83 84 86 87 89 91 92 93;
#X coords 0 127 128 0 200 140 1 0 0;
#X restore 385 621 graph;
#X obj 104 71 s blues;
#X obj 104 -2 t b;
#X obj 104 152 t b;
#X obj 105 303 t b;
#X obj 109 453 t b;
#X obj 104 225 s mixolydian;
#X obj 103 378 s major;
#X obj 109 526 s minor;
#X obj -159 438 tabread;
#X obj -11 146 loadbang;
#X msg -226 166 set blues;
#X msg -174 218 set mixolydian;
#X msg -150 273 set major;
#X msg -131 330 set minor;
#X text -229 65 select scale;
#X text -41 265 note trigger;
#X obj -226 110 route 1 2 3 4;
#X obj -227 140 select 1;
#X obj -174 192 select 1;
#X obj -132 304 select 1;
#X msg 104 25 0 41 42 43 46 48 51 53 54 55 58 60 63 65 66 67 70 72
75 77 78 79 82 84 87 89 90 91 94 96 99 101 102 41 42 43 46 48 51 53
54 55 58 60 63 65 66 67 70 72 75 77 78 79 82 84 87 89 90 91 94 96 99
101 102 41 42 43 46 48 51 53 54 55 58 60 63 65 66 67 70 72 75 77 78
79 82 84 87 89 90 91 94 96 99 101 102 41 42 43 46 48 51 53 54 55 58
60 63 65 66 67 70 72 75 77 78 79 82 84 87 89 90 91 94 96 99 101 102
;
#X msg 104 182 0 45 46 48 50 52 53 55 57 58 60 62 64 65 67 69 70 72
74 76 77 79 81 82 84 86 88 89 91 93 94 96 98 45 46 48 50 52 53 55 57
58 60 62 64 65 67 69 70 72 74 76 77 79 81 82 84 86 88 89 91 93 94 96
98 45 46 48 50 52 53 55 57 58 60 62 64 65 67 69 70 72 74 76 77 79 81
82 84 86 88 89 91 93 94 96 98 45 46 48 50 52 53 55 57 58 60 62 64 65
67 69 70 72 74 76 77 79 81 82 84 86 88 89 91 93 94 96 98;
#X msg 105 333 0 43 45 48 50 51 52 54 55 57 60 62 63 64 66 67 69 72
74 75 76 78 79 81 84 86 87 88 90 91 93 96 98 43 45 48 50 51 52 54 55
57 60 62 63 64 66 67 69 72 74 75 76 78 79 81 84 86 87 88 90 91 93 96
98 43 45 48 50 51 52 54 55 57 60 62 63 64 66 67 69 72 74 75 76 78 79
81 84 86 87 88 90 91 93 96 98 43 45 48 50 51 52 54 55 57 60 62 63 64
66 67 69 72 74 75 76 78 79 81 84 86 87 88 90 91 93 96 98;
#X msg 109 484 0 51 53 55 56 57 58 59 60 62 63 65 67 68 69 70 71 72
74 75 77 79 80 81 82 83 84 86 87 89 91 92 93 51 53 55 56 57 58 59 60
62 63 65 67 68 69 70 71 72 74 75 77 79 80 81 82 83 84 86 87 89 91 92
93 51 53 55 56 57 58 59 60 62 63 65 67 68 69 70 71 72 74 75 77 79 80
81 82 83 84 86 87 89 91 92 93 51 53 55 56 57 58 59 60 62 63 65 67 68
69 70 71 72 74 75 77 79 80 81 82 83 84 86 87 89 91 92 93;
#X obj -60 311 bng 15 250 50 0 empty empty empty 17 7 0 10 -262144
-1 -1;
#X obj -65 221 bng 15 250 50 0 empty empty empty 17 7 0 10 -262144
-1 -1;
#X obj -138 166 bng 15 250 50 0 empty empty empty 17 7 0 10 -262144
-1 -1;
#X obj -67 276 bng 15 250 50 0 empty empty empty 17 7 0 10 -262144
-1 -1;
#X obj -119 114 print;
#X obj -150 246 select 0;
#X connect 0 0 23 0;
#X connect 0 0 35 0;
#X connect 1 0 15 0;
#X connect 8 0 27 0;
#X connect 9 0 28 0;
#X connect 10 0 29 0;
#X connect 11 0 30 0;
#X connect 15 0 2 0;
#X connect 16 0 8 0;
#X connect 16 0 9 0;
#X connect 16 0 10 0;
#X connect 16 0 11 0;
#X connect 17 0 15 0;
#X connect 18 0 15 0;
#X connect 18 0 32 0;
#X connect 19 0 15 0;
#X connect 20 0 15 0;
#X connect 23 0 24 0;
#X connect 23 1 25 0;
#X connect 23 2 36 0;
#X connect 23 3 26 0;
#X connect 24 0 17 0;
#X connect 24 0 33 0;
#X connect 25 0 18 0;
#X connect 26 0 20 0;
#X connect 26 0 31 0;
#X connect 27 0 7 0;
#X connect 28 0 12 0;
#X connect 29 0 13 0;
#X connect 30 0 14 0;
#X connect 36 0 19 0;
#X connect 36 0 34 0;
#X restore 390 280 pd scales;
#X obj 184 318 pack f 10;
#X text 387 40 swap x and y;
#X obj 66 71 route /1/audio_mod /1/note_env /1/x /1/y /1/z /1/scale/1/1
/1/scale/1/2 /1/scale/1/3 /1/scale/1/4;
#X obj 185 180 / 100;
#X obj 185 206 nbx 5 14 -1e+37 1e+37 0 0 empty empty empty 0 -8 0 10
-262144 -1 -1 0.49 256;
#X msg 304 124 1 \$1;
#X msg 344 124 2 \$1;
#X msg 385 124 3 \$3;
#X msg 427 124 4 \$1;
#X obj 254 224 nbx 5 14 -1e+37 1e+37 0 0 empty empty empty 0 -8 0 10
-262144 -1 -1 32 256;
#X obj 253 124 - 100;
#X obj 258 148 * -1;
#X obj 255 171 - 50;
#X obj 253 199 int;
#N canvas 1574 280 682 612 fm_osc 0;
#X obj 303 344 cos~;
#X obj 303 298 *~;
#X obj 346 346 cos~;
#X obj 419 253 wrap~;
#X obj 382 252 -~;
#X obj 346 323 +~;
#X obj 344 381 -~;
#X obj 365 407 *~;
#X obj 382 222 samphold~;
#X floatatom 428 99 4 0 200 0 - - -;
#X obj 428 122 / 10;
#X text 427 52 center;
#X obj 428 171 line~;
#X obj 428 148 pack 0 50;
#X obj 317 154 phasor~;
#X floatatom 317 131 4 0 0 0 - - -;
#X text 313 67 fundamental;
#X text 600 116 index;
#X floatatom 559 141 4 0 500 0 - - -;
#X obj 515 210 cos~;
#X obj 559 210 line~;
#X obj 528 242 *~;
#X obj 559 164 / 100;
#X obj 559 187 pack 0 50;
#X obj 303 321 +~;
#X text 560 247 modulating;
#X text 560 267 oscillator;
#X obj 317 453 hip~;
#X obj 317 426 +~;
#X obj 317 112 nbx 5 14 -1e+37 1e+37 0 0 empty empty empty 0 -8 0 10
-262144 -1 -1 87.3071 256;
#X obj 75 355 line~;
#X obj 90 298 delay 120;
#X obj 153 502 *~;
#X obj 30 234 t b b;
#X obj 30 215 bng 15 250 50 0 empty empty empty 17 7 0 10 -262144 -1
-1;
#X obj 103 263 nbx 5 14 -1e+37 1e+37 0 0 empty empty empty 0 -8 0 10
-262144 -1 -1 10 256;
#X msg 90 326 0 250;
#X obj 74 382 nop~;
#X obj 317 87 inlet;
#X obj 428 73 inlet;
#X obj 559 117 inlet;
#X obj 153 554 outlet~;
#X obj 30 191 inlet;
#X obj 18 317 pack 1 f;
#X obj 96 183 inlet;
#X obj 96 209 t f f;
#X obj 40 273 f;
#X obj 152 529 *~;
#X obj 192 222 inlet;
#X obj 225 412 pack f 10;
#X obj 191 504 line~;
#X msg 193 447 \$1 10;
#X obj 192 247 - 1;
#X obj 194 270 * -1;
#X obj 193 297 - 9;
#X connect 0 0 6 1;
#X connect 0 0 28 0;
#X connect 1 0 24 0;
#X connect 2 0 6 0;
#X connect 3 0 4 1;
#X connect 3 0 7 1;
#X connect 4 0 1 1;
#X connect 5 0 2 0;
#X connect 6 0 7 0;
#X connect 7 0 28 1;
#X connect 8 0 4 0;
#X connect 8 0 3 0;
#X connect 9 0 10 0;
#X connect 10 0 13 0;
#X connect 12 0 8 0;
#X connect 13 0 12 0;
#X connect 14 0 8 1;
#X connect 14 0 19 0;
#X connect 14 0 1 0;
#X connect 14 0 5 1;
#X connect 15 0 14 0;
#X connect 18 0 22 0;
#X connect 19 0 21 0;
#X connect 20 0 21 1;
#X connect 21 0 24 1;
#X connect 22 0 23 0;
#X connect 23 0 20 0;
#X connect 24 0 5 0;
#X connect 24 0 0 0;
#X connect 27 0 32 0;
#X connect 28 0 27 0;
#X connect 29 0 15 0;
#X connect 30 0 37 0;
#X connect 31 0 36 0;
#X connect 32 0 47 0;
#X connect 33 0 46 0;
#X connect 33 1 31 0;
#X connect 34 0 33 0;
#X connect 35 0 31 1;
#X connect 36 0 30 0;
#X connect 37 0 32 1;
#X connect 38 0 29 0;
#X connect 39 0 9 0;
#X connect 40 0 18 0;
#X connect 42 0 34 0;
#X connect 43 0 30 0;
#X connect 44 0 45 0;
#X connect 45 0 46 1;
#X connect 45 1 35 0;
#X connect 46 0 43 0;
#X connect 47 0 41 0;
#X connect 48 0 52 0;
#X connect 50 0 47 1;
#X connect 51 0 50 0;
#X connect 52 0 53 0;
#X connect 53 0 54 0;
#X connect 54 0 51 0;
#X restore 174 445 pd fm_osc;
#X obj 219 407 t b f;
#X obj 215 520 dac~;
#X obj 261 408 bng 15 250 50 0 empty empty empty 17 7 0 10 -262144
-1 -1;
#X obj 116 49 bng 15 250 50 0 empty empty empty 17 7 0 10 -262144 -1
-1;
#X obj 139 50 bng 15 250 50 0 empty empty empty 17 7 0 10 -262144 -1
-1;
#X obj 166 49 bng 15 250 50 0 empty empty empty 17 7 0 10 -262144 -1
-1;
#X obj 189 50 bng 15 250 50 0 empty empty empty 17 7 0 10 -262144 -1
-1;
#X obj 216 49 bng 15 250 50 0 empty empty empty 17 7 0 10 -262144 -1
-1;
#X obj 239 50 bng 15 250 50 0 empty empty empty 17 7 0 10 -262144 -1
-1;
#X obj 266 49 bng 15 250 50 0 empty empty empty 17 7 0 10 -262144 -1
-1;
#X obj 289 50 bng 15 250 50 0 empty empty empty 17 7 0 10 -262144 -1
-1;
#X obj 316 49 bng 15 250 50 0 empty empty empty 17 7 0 10 -262144 -1
-1;
#X obj 339 50 bng 15 250 50 0 empty empty empty 17 7 0 10 -262144 -1
-1;
#X obj 396 351 - 10;
#X obj 272 338 nbx 5 14 -1e+37 1e+37 0 0 empty empty empty 0 -8 0 10
-262144 -1 -1 -0.174312 256;
#X obj 304 477 hsl 128 20 0 1 0 1 empty empty pan_position 6 10 1 11
-262131 -1 -1 0 0;
#X obj 175 477 square_root_pan~;
#X obj 272 289 + 60;
#X obj 272 313 / 109;
#X obj 184 230 * -1;
#X obj 184 261 +;
#X obj 199 293 nbx 5 14 -1e+37 1e+37 0 0 empty empty empty 0 -8 0 10
-262144 -1 -1 -0.49 256;
#X obj 223 264 nbx 5 14 -1e+37 1e+37 0 0 empty empty empty 0 -8 0 10
-262144 -1 -1 0 256;
#X obj 29 405 random 100;
#X obj 26 439 moses 50;
#X obj 25 373 metro;
#X obj 55 354 nbx 5 14 -1e+37 1e+37 0 0 empty empty empty 0 -8 0 10
-262144 -1 -1 0 256;
#X obj 17 346 tgl 15 0 empty empty empty 17 7 0 10 -262144 -1 -1 0
1;
#X obj 76 311 nbx 5 14 -1e+37 1e+37 0 0 empty empty empty 0 -8 0 10
-262144 -1 -1 0 256;
#X connect 0 0 24 0;
#X connect 1 0 37 0;
#X connect 3 0 6 0;
#X connect 5 0 11 0;
#X connect 6 0 5 0;
#X connect 7 0 6 0;
#X connect 8 0 1 0;
#X connect 9 0 23 2;
#X connect 11 0 23 4;
#X connect 11 0 27 0;
#X connect 11 1 23 1;
#X connect 11 1 28 0;
#X connect 11 2 29 0;
#X connect 11 2 41 0;
#X connect 11 3 19 0;
#X connect 11 3 30 0;
#X connect 11 4 12 0;
#X connect 11 4 31 0;
#X connect 11 5 14 0;
#X connect 11 5 32 0;
#X connect 11 6 15 0;
#X connect 11 6 33 0;
#X connect 11 7 16 0;
#X connect 11 7 34 0;
#X connect 11 8 17 0;
#X connect 11 8 35 0;
#X connect 11 9 36 0;
#X connect 12 0 13 0;
#X connect 13 0 43 0;
#X connect 14 0 8 0;
#X connect 15 0 8 0;
#X connect 16 0 8 0;
#X connect 17 0 8 0;
#X connect 18 0 8 1;
#X connect 19 0 20 0;
#X connect 20 0 21 0;
#X connect 21 0 22 0;
#X connect 22 0 18 0;
#X connect 23 0 40 0;
#X connect 24 0 23 0;
#X connect 24 1 23 3;
#X connect 24 1 26 0;
#X connect 37 0 0 0;
#X connect 38 0 39 0;
#X connect 39 0 40 1;
#X connect 40 0 25 0;
#X connect 40 1 25 1;
#X connect 41 0 42 0;
#X connect 42 0 38 0;
#X connect 43 0 44 0;
#X connect 44 0 45 0;
#X connect 45 0 9 0;
#X connect 46 0 44 1;
#X connect 47 0 48 0;
#X connect 49 0 47 0;
#X connect 50 0 49 1;
#X connect 51 0 49 0;
